<?xml version="1.0" encoding="UTF-8" standalone="no"?>
<!DOCTYPE svg PUBLIC "-//W3C//DTD SVG 1.1//EN"
 "http://www.w3.org/Graphics/SVG/1.1/DTD/svg11.dtd">
<!-- Generated by graphviz version 2.38.0 (20140413.2041)
 -->
<!-- Title: finite_state_machine Pages: 1 -->
<svg width="258pt" height="225pt"
 viewBox="0.00 0.00 258.00 225.00" xmlns="http://www.w3.org/2000/svg" xmlns:xlink="http://www.w3.org/1999/xlink">
<g id="graph0" class="graph" transform="scale(1 1) rotate(0) translate(4 221)">
<title>finite_state_machine</title>
<polygon fill="white" stroke="none" points="-4,4 -4,-221 254,-221 254,4 -4,4"/>
<!-- Start -->
<g id="node1" class="node"><title>Start</title>
<polygon fill="none" stroke="black" points="233,-217 17,-217 17,-157 233,-157 233,-217"/>
<text text-anchor="middle" x="125" y="-203.4" font-family="Times New Roman,serif" font-size="12.00">下载rundo和rundolines[^1]</text>
<text text-anchor="middle" x="125" y="-190.4" font-family="Times New Roman,serif" font-size="12.00">设置ini文件:</text>
<text text-anchor="middle" x="125" y="-177.4" font-family="Times New Roman,serif" font-size="12.00">修改stata路径为nStataSE&#45;64.exe所在路径</text>
<text text-anchor="middle" x="125" y="-164.4" font-family="Times New Roman,serif" font-size="12.00">修改stata版本为statawin=&quot;Stata/SE 15.1&quot;</text>
</g>
<!-- VSCODE -->
<g id="node2" class="node"><title>VSCODE</title>
<polygon fill="none" stroke="black" points="237,-109 13,-109 13,-73 237,-73 237,-109"/>
<text text-anchor="middle" x="125" y="-94.4" font-family="Times New Roman,serif" font-size="12.00">在VS Code中安装code runner extension[^2]</text>
<text text-anchor="middle" x="125" y="-81.4" font-family="Times New Roman,serif" font-size="12.00">设置Code Runner参数[^2]</text>
</g>
<!-- Start&#45;&gt;VSCODE -->
<g id="edge1" class="edge"><title>Start&#45;&gt;VSCODE</title>
<path fill="none" stroke="black" d="M125,-156.773C125,-144.807 125,-131.038 125,-119.28"/>
<polygon fill="black" stroke="black" points="128.5,-119.157 125,-109.157 121.5,-119.157 128.5,-119.157"/>
<text text-anchor="middle" x="136.5" y="-130.2" font-family="Times New Roman,serif" font-size="11.00">下载</text>
</g>
<!-- Geoda -->
<g id="node3" class="node"><title>Geoda</title>
<polygon fill="#dfc1c1" stroke="none" points="250,-36 0,-36 0,-0 250,-0 250,-36"/>
<text text-anchor="middle" x="125" y="-21.4" font-family="Times New Roman,serif" font-size="12.00">测试：在VS Code中编辑do文件</text>
<text text-anchor="middle" x="125" y="-8.4" font-family="Times New Roman,serif" font-size="12.00">并使用Ctrl+Alt+N或Ctrl+Alt+K运行STATA代码</text>
</g>
<!-- VSCODE&#45;&gt;Geoda -->
<g id="edge2" class="edge"><title>VSCODE&#45;&gt;Geoda</title>
<path fill="none" stroke="black" d="M125,-72.8129C125,-64.7895 125,-55.0475 125,-46.0691"/>
<polygon fill="black" stroke="black" points="128.5,-46.0288 125,-36.0288 121.5,-46.0289 128.5,-46.0288"/>
</g>
</g>
</svg>
